ffmpeg version git-2026-04-19-de18feb Copyright (c) 2000-2026 the FFmpeg developers
  built with gcc 9 (Ubuntu 9.4.0-1ubuntu1~20.04.2)
  configuration: --enable-shared --enable-gpl --enable-libx264
  libavutil      60. 30.100 / 60. 30.100
  libavcodec     62. 30.100 / 62. 30.100
  libavformat    62. 13.102 / 62. 13.102
  libavdevice    62.  4.100 / 62.  4.100
  libavfilter    11. 15.101 / 11. 15.101
  libswscale      9.  7.100 /  9.  7.100
  libswresample   6.  4.100 /  6.  4.100
[in#0/x11grab @ 0x563916a40c40] Stream #0: not enough frames to estimate rate; consider increasing probesize
Input #0, x11grab, from ':0.0+0,0':
  Duration: N/A, start: 1777398348.218611, bitrate: 3678192 kb/s
  Stream #0:0: Video: rawvideo (BGR[0] / 0x524742), bgr0, 2870x1602, 3678192 kb/s, 25 fps, 1000k tbr, 1000k tbn, start 1777398348.218611
Stream mapping:
  Stream #0:0 -> #0:0 (rawvideo (native) -> h264 (libx264))
[libx264 @ 0x563916a4ef00] using cpu capabilities: MMX2 SSE2Fast SSSE3 SSE4.2 AVX FMA3 BMI2 AVX2
[libx264 @ 0x563916a4ef00] profile High, level 5.0
[libx264 @ 0x563916a4ef00] 264 - core 155 r2917 0a84d98 - H.264/MPEG-4 AVC codec - Copyleft 2003-2018 - http://www.videolan.org/x264.html - options: cabac=1 ref=1 deblock=1:0:0 analyse=0x3:0x113 me=hex subme=2 psy=1 psy_rd=1.00:0.00 mixed_ref=0 me_range=16 chroma_me=1 trellis=0 8x8dct=1 cqm=0 deadzone=21,11 fast_pskip=1 chroma_qp_offset=0 threads=6 lookahead_threads=2 sliced_threads=0 nr=0 decimate=1 interlaced=0 bluray_compat=0 constrained_intra=0 bframes=3 b_pyramid=2 b_adapt=1 b_bias=0 direct=1 weightb=1 open_gop=0 weightp=1 keyint=250 keyint_min=25 scenecut=40 intra_refresh=0 rc_lookahead=10 rc=crf mbtree=1 crf=23.0 qcomp=0.60 qpmin=0 qpmax=69 qpstep=4 ip_ratio=1.40 aq=1:1.00
Output #0, matroska, to '/home/lmy/catkin_ws/recordings_tmp/exp_10_segment_v4/screen.mkv':
  Metadata:
    encoder         : Lavf62.13.102
  Stream #0:0: Video: h264 (H264 / 0x34363248), yuv420p(tv, progressive), 2870x1602, q=2-31, 25 fps, 1k tbn
    Metadata:
      encoder         : Lavc62.30.100 libx264
    Side data:
      CPB properties: bitrate max/min/avg: 0/0/0 buffer size: 0 vbv_delay: N/A
frame=    0 fps=0.0 q=0.0 size=       0KiB time=N/A bitrate=N/A speed=N/A elapsed=0:00:00.50    frame=    5 fps=5.0 q=28.0 size=       1KiB time=00:00:00.12 bitrate=  39.6kbits/s speed=0.12x elapsed=0:00:01.00    frame=   18 fps= 12 q=28.0 size=       1KiB time=00:00:00.64 bitrate=   7.4kbits/s speed=0.426x elapsed=0:00:01.50    frame=   31 fps= 15 q=28.0 size=       1KiB time=00:00:01.16 bitrate=   4.1kbits/s speed=0.579x elapsed=0:00:02.00    frame=   43 fps= 17 q=28.0 size=       1KiB time=00:00:01.64 bitrate=   2.9kbits/s speed=0.656x elapsed=0:00:02.50    frame=   56 fps= 19 q=28.0 size=       1KiB time=00:00:02.16 bitrate=   2.2kbits/s speed=0.719x elapsed=0:00:03.00    frame=   68 fps= 19 q=28.0 size=       1KiB time=00:00:02.64 bitrate=   1.8kbits/s speed=0.754x elapsed=0:00:03.50    frame=   80 fps= 20 q=28.0 size=       1KiB time=00:00:03.12 bitrate=   1.5kbits/s speed=0.779x elapsed=0:00:04.00    frame=   93 fps= 21 q=28.0 size=       1KiB time=00:00:03.64 bitrate=   1.3kbits/s speed=0.808x elapsed=0:00:04.50    frame=  106 fps= 21 q=28.0 size=       1KiB time=00:00:04.16 bitrate=   1.1kbits/s speed=0.831x elapsed=0:00:05.00    frame=  118 fps= 21 q=28.0 size=       1KiB time=00:00:04.64 bitrate=   1.0kbits/s speed=0.843x elapsed=0:00:05.50    frame=  131 fps= 22 q=28.0 size=     160KiB time=00:00:05.16 bitrate= 253.8kbits/s speed=0.859x elapsed=0:00:06.00    frame=  143 fps= 22 q=28.0 size=     160KiB time=00:00:05.64 bitrate= 232.2kbits/s speed=0.866x elapsed=0:00:06.51    frame=  156 fps= 22 q=28.0 size=     160KiB time=00:00:06.16 bitrate= 212.6kbits/s speed=0.878x elapsed=0:00:07.01    frame=  168 fps= 22 q=28.0 size=     160KiB time=00:00:06.64 bitrate= 197.2kbits/s speed=0.884x elapsed=0:00:07.51    frame=  181 fps= 23 q=28.0 size=     160KiB time=00:00:07.16 bitrate= 182.9kbits/s speed=0.894x elapsed=0:00:08.01    frame=  193 fps= 23 q=28.0 size=     160KiB time=00:00:07.64 bitrate= 171.4kbits/s speed=0.897x elapsed=0:00:08.51    frame=  206 fps= 23 q=28.0 size=     160KiB time=00:00:08.16 bitrate= 160.5kbits/s speed=0.905x elapsed=0:00:09.01    frame=  218 fps= 23 q=28.0 size=     160KiB time=00:00:08.64 bitrate= 151.6kbits/s speed=0.908x elapsed=0:00:09.51    frame=  231 fps= 23 q=28.0 size=     160KiB time=00:00:09.16 bitrate= 143.0kbits/s speed=0.914x elapsed=0:00:10.01    frame=  244 fps= 23 q=28.0 size=     160KiB time=00:00:09.68 bitrate= 135.3kbits/s speed=0.92x elapsed=0:00:10.51    frame=  256 fps= 23 q=28.0 size=     256KiB time=00:00:10.16 bitrate= 206.4kbits/s speed=0.922x elapsed=0:00:11.01    frame=  268 fps= 23 q=28.0 size=     256KiB time=00:00:10.64 bitrate= 197.1kbits/s speed=0.924x elapsed=0:00:11.51    frame=  281 fps= 23 q=28.0 size=     256KiB time=00:00:11.16 bitrate= 187.9kbits/s speed=0.928x elapsed=0:00:12.02    frame=  293 fps= 23 q=28.0 size=     256KiB time=00:00:11.64 bitrate= 180.2kbits/s speed=0.93x elapsed=0:00:12.52    frame=  306 fps= 23 q=28.0 size=     256KiB time=00:00:12.16 bitrate= 172.5kbits/s speed=0.934x elapsed=0:00:13.02    frame=  319 fps= 24 q=28.0 size=     256KiB time=00:00:12.68 bitrate= 165.4kbits/s speed=0.938x elapsed=0:00:13.52    frame=  331 fps= 24 q=28.0 size=     256KiB time=00:00:13.16 bitrate= 159.4kbits/s speed=0.939x elapsed=0:00:14.02    frame=  343 fps= 24 q=28.0 size=     256KiB time=00:00:13.64 bitrate= 153.8kbits/s speed=0.939x elapsed=0:00:14.52    frame=  356 fps= 24 q=28.0 size=     256KiB time=00:00:14.16 bitrate= 148.1kbits/s speed=0.943x elapsed=0:00:15.02    frame=  369 fps= 24 q=28.0 size=     256KiB time=00:00:14.68 bitrate= 142.9kbits/s speed=0.946x elapsed=0:00:15.52    frame=  381 fps= 24 q=28.0 size=     256KiB time=00:00:15.16 bitrate= 138.3kbits/s speed=0.946x elapsed=0:00:16.02    frame=  394 fps= 24 q=28.0 size=     256KiB time=00:00:15.68 bitrate= 133.7kbits/s speed=0.949x elapsed=0:00:16.52    frame=  406 fps= 24 q=28.0 size=     256KiB time=00:00:16.16 bitrate= 129.8kbits/s speed=0.949x elapsed=0:00:17.02    frame=  419 fps= 24 q=28.0 size=     256KiB time=00:00:16.68 bitrate= 125.7kbits/s speed=0.952x elapsed=0:00:17.52    frame=  431 fps= 24 q=28.0 size=     256KiB time=00:00:17.16 bitrate= 122.2kbits/s speed=0.952x elapsed=0:00:18.02    frame=  444 fps= 24 q=28.0 size=     256KiB time=00:00:17.68 bitrate= 118.6kbits/s speed=0.954x elapsed=0:00:18.52    frame=  456 fps= 24 q=28.0 size=     256KiB time=00:00:18.16 bitrate= 115.5kbits/s speed=0.954x elapsed=0:00:19.02    frame=  469 fps= 24 q=28.0 size=     256KiB time=00:00:18.68 bitrate= 112.3kbits/s speed=0.957x elapsed=0:00:19.52    frame=  481 fps= 24 q=28.0 size=     256KiB time=00:00:19.16 bitrate= 109.5kbits/s speed=0.957x elapsed=0:00:20.03    frame=  494 fps= 24 q=28.0 size=     256KiB time=00:00:19.68 bitrate= 106.6kbits/s speed=0.959x elapsed=0:00:20.53    frame=  506 fps= 24 q=28.0 size=     512KiB time=00:00:20.16 bitrate= 208.1kbits/s speed=0.958x elapsed=0:00:21.03    frame=  519 fps= 24 q=28.0 size=     512KiB time=00:00:20.68 bitrate= 202.8kbits/s speed=0.96x elapsed=0:00:21.53    frame=  531 fps= 24 q=28.0 size=     512KiB time=00:00:21.16 bitrate= 198.2kbits/s speed=0.96x elapsed=0:00:22.03    frame=  544 fps= 24 q=28.0 size=     512KiB time=00:00:21.68 bitrate= 193.5kbits/s speed=0.962x elapsed=0:00:22.54    frame=  557 fps= 24 q=28.0 size=     512KiB time=00:00:22.20 bitrate= 188.9kbits/s speed=0.964x elapsed=0:00:23.04    frame=  569 fps= 24 q=28.0 size=     512KiB time=00:00:22.68 bitrate= 184.9kbits/s speed=0.963x elapsed=0:00:23.54    frame=  581 fps= 24 q=28.0 size=     512KiB time=00:00:23.16 bitrate= 181.1kbits/s speed=0.963x elapsed=0:00:24.04    frame=  594 fps= 24 q=28.0 size=     512KiB time=00:00:23.68 bitrate= 177.1kbits/s speed=0.965x elapsed=0:00:24.54    frame=  606 fps= 24 q=28.0 size=     512KiB time=00:00:24.16 bitrate= 173.6kbits/s speed=0.965x elapsed=0:00:25.04    frame=  619 fps= 24 q=28.0 size=     512KiB time=00:00:24.68 bitrate= 169.9kbits/s speed=0.966x elapsed=0:00:25.54    frame=  631 fps= 24 q=28.0 size=     512KiB time=00:00:25.16 bitrate= 166.7kbits/s speed=0.966x elapsed=0:00:26.04    frame=  644 fps= 24 q=28.0 size=     512KiB time=00:00:25.68 bitrate= 163.3kbits/s speed=0.967x elapsed=0:00:26.54    frame=  656 fps= 24 q=28.0 size=     512KiB time=00:00:26.16 bitrate= 160.3kbits/s speed=0.967x elapsed=0:00:27.04    frame=  669 fps= 24 q=28.0 size=     512KiB time=00:00:26.68 bitrate= 157.2kbits/s speed=0.969x elapsed=0:00:27.54    frame=  682 fps= 24 q=28.0 size=     512KiB time=00:00:27.20 bitrate= 154.2kbits/s speed=0.97x elapsed=0:00:28.04    frame=  694 fps= 24 q=28.0 size=     512KiB time=00:00:27.68 bitrate= 151.5kbits/s speed=0.97x elapsed=0:00:28.54    frame=  707 fps= 24 q=28.0 size=     512KiB time=00:00:28.20 bitrate= 148.7kbits/s speed=0.971x elapsed=0:00:29.04    frame=  719 fps= 24 q=28.0 size=     512KiB time=00:00:28.68 bitrate= 146.2kbits/s speed=0.971x elapsed=0:00:29.54    frame=  732 fps= 24 q=28.0 size=     512KiB time=00:00:29.20 bitrate= 143.6kbits/s speed=0.972x elapsed=0:00:30.04    frame=  744 fps= 24 q=28.0 size=     512KiB time=00:00:29.68 bitrate= 141.3kbits/s speed=0.972x elapsed=0:00:30.54    frame=  757 fps= 24 q=28.0 size=     768KiB time=00:00:30.20 bitrate= 208.3kbits/s speed=0.973x elapsed=0:00:31.04    frame=  769 fps= 24 q=28.0 size=     768KiB time=00:00:30.68 bitrate= 205.1kbits/s speed=0.973x elapsed=0:00:31.54    frame=  782 fps= 24 q=28.0 size=     768KiB time=00:00:31.20 bitrate= 201.6kbits/s speed=0.973x elapsed=0:00:32.05    frame=  794 fps= 24 q=28.0 size=     768KiB time=00:00:31.68 bitrate= 198.6kbits/s speed=0.973x elapsed=0:00:32.55    frame=  807 fps= 24 q=28.0 size=     768KiB time=00:00:32.20 bitrate= 195.4kbits/s speed=0.974x elapsed=0:00:33.05    frame=  819 fps= 24 q=28.0 size=     768KiB time=00:00:32.68 bitrate= 192.5kbits/s speed=0.974x elapsed=0:00:33.55    frame=  832 fps= 24 q=28.0 size=     768KiB time=00:00:33.20 bitrate= 189.5kbits/s speed=0.975x elapsed=0:00:34.05    frame=  844 fps= 24 q=28.0 size=     768KiB time=00:00:33.68 bitrate= 186.8kbits/s speed=0.975x elapsed=0:00:34.55    frame=  857 fps= 24 q=28.0 size=     768KiB time=00:00:34.20 bitrate= 184.0kbits/s speed=0.976x elapsed=0:00:35.05    frame=  870 fps= 24 q=28.0 size=     768KiB time=00:00:34.72 bitrate= 181.2kbits/s speed=0.977x elapsed=0:00:35.55    frame=  882 fps= 24 q=28.0 size=     768KiB time=00:00:35.20 bitrate= 178.7kbits/s speed=0.976x elapsed=0:00:36.05    frame=  895 fps= 24 q=28.0 size=     768KiB time=00:00:35.72 bitrate= 176.1kbits/s speed=0.977x elapsed=0:00:36.55    frame=  907 fps= 24 q=28.0 size=     768KiB time=00:00:36.20 bitrate= 173.8kbits/s speed=0.977x elapsed=0:00:37.05    frame=  919 fps= 24 q=28.0 size=     768KiB time=00:00:36.68 bitrate= 171.5kbits/s speed=0.977x elapsed=0:00:37.55    frame=  932 fps= 24 q=28.0 size=     768KiB time=00:00:37.20 bitrate= 169.1kbits/s speed=0.978x elapsed=0:00:38.05    frame=  944 fps= 24 q=28.0 size=     768KiB time=00:00:37.68 bitrate= 167.0kbits/s speed=0.977x elapsed=0:00:38.55    frame=  957 fps= 25 q=28.0 size=     768KiB time=00:00:38.20 bitrate= 164.7kbits/s speed=0.978x elapsed=0:00:39.05    frame=  969 fps= 24 q=28.0 size=     768KiB time=00:00:38.72 bitrate= 162.5kbits/s speed=0.979x elapsed=0:00:39.55    frame=  982 fps= 25 q=28.0 size=     768KiB time=00:00:39.20 bitrate= 160.5kbits/s speed=0.979x elapsed=0:00:40.05    frame=  995 fps= 25 q=28.0 size=     768KiB time=00:00:39.72 bitrate= 158.4kbits/s speed=0.979x elapsed=0:00:40.55    frame= 1007 fps= 25 q=28.0 size=    1024KiB time=00:00:40.20 bitrate= 208.7kbits/s speed=0.979x elapsed=0:00:41.05    frame= 1019 fps= 25 q=28.0 size=    1024KiB time=00:00:40.68 bitrate= 206.2kbits/s speed=0.979x elapsed=0:00:41.55    frame= 1032 fps= 25 q=28.0 size=    1024KiB time=00:00:41.20 bitrate= 203.6kbits/s speed=0.98x elapsed=0:00:42.05    frame= 1045 fps= 25 q=28.0 size=    1024KiB time=00:00:41.72 bitrate= 201.1kbits/s speed=0.98x elapsed=0:00:42.55    frame= 1057 fps= 25 q=28.0 size=    1024KiB time=00:00:42.20 bitrate= 198.8kbits/s speed=0.98x elapsed=0:00:43.05    frame= 1069 fps= 25 q=28.0 size=    1024KiB time=00:00:42.68 bitrate= 196.5kbits/s speed=0.98x elapsed=0:00:43.55    frame= 1082 fps= 25 q=28.0 size=    1024KiB time=00:00:43.20 bitrate= 194.2kbits/s speed=0.98x elapsed=0:00:44.05    frame= 1095 fps= 25 q=28.0 size=    1024KiB time=00:00:43.72 bitrate= 191.9kbits/s speed=0.981x elapsed=0:00:44.55    frame= 1107 fps= 25 q=28.0 size=    1024KiB time=00:00:44.20 bitrate= 189.8kbits/s speed=0.981x elapsed=0:00:45.06    frame= 1120 fps= 25 q=28.0 size=    1024KiB time=00:00:44.72 bitrate= 187.6kbits/s speed=0.982x elapsed=0:00:45.56    frame= 1132 fps= 25 q=28.0 size=    1280KiB time=00:00:45.20 bitrate= 232.0kbits/s speed=0.981x elapsed=0:00:46.06    frame= 1145 fps= 25 q=28.0 size=    1280KiB time=00:00:45.72 bitrate= 229.3kbits/s speed=0.982x elapsed=0:00:46.56    frame= 1157 fps= 25 q=28.0 size=    1280KiB time=00:00:46.20 bitrate= 227.0kbits/s speed=0.982x elapsed=0:00:47.06    frame= 1170 fps= 25 q=28.0 size=    1280KiB time=00:00:46.72 bitrate= 224.4kbits/s speed=0.982x elapsed=0:00:47.56    frame= 1182 fps= 25 q=28.0 size=    1280KiB time=00:00:47.20 bitrate= 222.2kbits/s speed=0.982x elapsed=0:00:48.06    frame= 1195 fps= 25 q=28.0 size=    1280KiB time=00:00:47.72 bitrate= 219.7kbits/s speed=0.983x elapsed=0:00:48.56    frame= 1207 fps= 25 q=28.0 size=    1280KiB time=00:00:48.20 bitrate= 217.5kbits/s speed=0.982x elapsed=0:00:49.06    frame= 1220 fps= 25 q=28.0 size=    1280KiB time=00:00:48.72 bitrate= 215.2kbits/s speed=0.983x elapsed=0:00:49.56    frame= 1232 fps= 25 q=28.0 size=    1280KiB time=00:00:49.20 bitrate= 213.1kbits/s speed=0.983x elapsed=0:00:50.06    frame= 1244 fps= 25 q=28.0 size=    1280KiB time=00:00:49.72 bitrate= 210.9kbits/s speed=0.983x elapsed=0:00:50.56    frame= 1257 fps= 25 q=28.0 size=    1280KiB time=00:00:50.20 bitrate= 208.9kbits/s speed=0.983x elapsed=0:00:51.06    frame= 1270 fps= 25 q=28.0 size=    1280KiB time=00:00:50.72 bitrate= 206.7kbits/s speed=0.984x elapsed=0:00:51.56    frame= 1282 fps= 25 q=28.0 size=    1280KiB time=00:00:51.20 bitrate= 204.8kbits/s speed=0.983x elapsed=0:00:52.06    frame= 1295 fps= 25 q=28.0 size=    1280KiB time=00:00:51.72 bitrate= 202.7kbits/s speed=0.984x elapsed=0:00:52.56    frame= 1307 fps= 25 q=28.0 size=    1280KiB time=00:00:52.20 bitrate= 200.9kbits/s speed=0.984x elapsed=0:00:53.06    frame= 1320 fps= 25 q=28.0 size=    1280KiB time=00:00:52.72 bitrate= 198.9kbits/s speed=0.984x elapsed=0:00:53.56    frame= 1333 fps= 25 q=28.0 size=    1280KiB time=00:00:53.24 bitrate= 197.0kbits/s speed=0.985x elapsed=0:00:54.07    frame= 1344 fps= 25 q=28.0 size=    1280KiB time=00:00:53.68 bitrate= 195.3kbits/s speed=0.984x elapsed=0:00:54.57    frame= 1358 fps= 25 q=28.0 size=    1280KiB time=00:00:54.24 bitrate= 193.3kbits/s speed=0.985x elapsed=0:00:55.07    frame= 1370 fps= 25 q=28.0 size=    1280KiB time=00:00:54.72 bitrate= 191.6kbits/s speed=0.985x elapsed=0:00:55.57    frame= 1382 fps= 25 q=28.0 size=    1536KiB time=00:00:55.20 bitrate= 228.0kbits/s speed=0.984x elapsed=0:00:56.07    frame= 1395 fps= 25 q=28.0 size=    1536KiB time=00:00:55.72 bitrate= 225.8kbits/s speed=0.985x elapsed=0:00:56.57    frame= 1407 fps= 25 q=28.0 size=    1536KiB time=00:00:56.20 bitrate= 223.9kbits/s speed=0.985x elapsed=0:00:57.07    frame= 1420 fps= 25 q=28.0 size=    1536KiB time=00:00:56.72 bitrate= 221.8kbits/s speed=0.985x elapsed=0:00:57.58    frame= 1433 fps= 25 q=28.0 size=    1536KiB time=00:00:57.24 bitrate= 219.8kbits/s speed=0.986x elapsed=0:00:58.08    frame= 1445 fps= 25 q=28.0 size=    1536KiB time=00:00:57.72 bitrate= 218.0kbits/s speed=0.985x elapsed=0:00:58.58    frame= 1458 fps= 25 q=28.0 size=    1536KiB time=00:00:58.24 bitrate= 216.1kbits/s speed=0.986x elapsed=0:00:59.08    frame= 1470 fps= 25 q=28.0 size=    1536KiB time=00:00:58.72 bitrate= 214.3kbits/s speed=0.986x elapsed=0:00:59.58    frame= 1483 fps= 25 q=28.0 size=    1536KiB time=00:00:59.24 bitrate= 212.4kbits/s speed=0.986x elapsed=0:01:00.08    frame= 1495 fps= 25 q=28.0 size=    1536KiB time=00:00:59.72 bitrate= 210.7kbits/s speed=0.986x elapsed=0:01:00.58    frame= 1508 fps= 25 q=28.0 size=    1536KiB time=00:01:00.24 bitrate= 208.9kbits/s speed=0.986x elapsed=0:01:01.09    frame= 1520 fps= 25 q=28.0 size=    1536KiB time=00:01:00.72 bitrate= 207.2kbits/s speed=0.986x elapsed=0:01:01.59    frame= 1533 fps= 25 q=28.0 size=    1536KiB time=00:01:01.24 bitrate= 205.5kbits/s speed=0.986x elapsed=0:01:02.09    frame= 1545 fps= 25 q=28.0 size=    1536KiB time=00:01:01.72 bitrate= 203.9kbits/s speed=0.986x elapsed=0:01:02.59    frame= 1558 fps= 25 q=28.0 size=    1536KiB time=00:01:02.24 bitrate= 202.2kbits/s speed=0.986x elapsed=0:01:03.09    frame= 1570 fps= 25 q=28.0 size=    1536KiB time=00:01:02.72 bitrate= 200.6kbits/s speed=0.986x elapsed=0:01:03.59    frame= 1583 fps= 25 q=28.0 size=    1536KiB time=00:01:03.24 bitrate= 199.0kbits/s speed=0.987x elapsed=0:01:04.09    frame= 1595 fps= 25 q=28.0 size=    1536KiB time=00:01:03.72 bitrate= 197.5kbits/s speed=0.986x elapsed=0:01:04.59    frame= 1608 fps= 25 q=28.0 size=    1536KiB time=00:01:04.24 bitrate= 195.9kbits/s speed=0.987x elapsed=0:01:05.09    frame= 1621 fps= 25 q=28.0 size=    1536KiB time=00:01:04.76 bitrate= 194.3kbits/s speed=0.987x elapsed=0:01:05.59    frame= 1633 fps= 25 q=28.0 size=    1792KiB time=00:01:05.24 bitrate= 225.0kbits/s speed=0.987x elapsed=0:01:06.09    frame= 1645 fps= 25 q=28.0 size=    1792KiB time=00:01:05.72 bitrate= 223.4kbits/s speed=0.987x elapsed=0:01:06.59    frame= 1658 fps= 25 q=28.0 size=    1792KiB time=00:01:06.24 bitrate= 221.6kbits/s speed=0.987x elapsed=0:01:07.09    frame= 1670 fps= 25 q=28.0 size=    1792KiB time=00:01:06.72 bitrate= 220.0kbits/s speed=0.987x elapsed=0:01:07.59    frame= 1683 fps= 25 q=28.0 size=    1792KiB time=00:01:07.24 bitrate= 218.3kbits/s speed=0.987x elapsed=0:01:08.09    frame= 1696 fps= 25 q=28.0 size=    1792KiB time=00:01:07.76 bitrate= 216.6kbits/s speed=0.988x elapsed=0:01:08.60    frame= 1708 fps= 25 q=28.0 size=    1792KiB time=00:01:08.24 bitrate= 215.1kbits/s speed=0.988x elapsed=0:01:09.10    frame= 1721 fps= 25 q=28.0 size=    1792KiB time=00:01:08.76 bitrate= 213.5kbits/s speed=0.988x elapsed=0:01:09.60    frame= 1733 fps= 25 q=28.0 size=    1792KiB time=00:01:09.24 bitrate= 212.0kbits/s speed=0.988x elapsed=0:01:10.10    frame= 1746 fps= 25 q=25.0 size=    1792KiB time=00:01:09.76 bitrate= 210.4kbits/s speed=0.988x elapsed=0:01:10.60    frame= 1758 fps= 25 q=28.0 size=    1792KiB time=00:01:10.24 bitrate= 209.0kbits/s speed=0.988x elapsed=0:01:11.10    frame= 1771 fps= 25 q=28.0 size=    1792KiB time=00:01:10.76 bitrate= 207.5kbits/s speed=0.988x elapsed=0:01:11.60    frame= 1783 fps= 25 q=28.0 size=    1792KiB time=00:01:11.24 bitrate= 206.1kbits/s speed=0.988x elapsed=0:01:12.10    frame= 1795 fps= 25 q=28.0 size=    1792KiB time=00:01:11.72 bitrate= 204.7kbits/s speed=0.988x elapsed=0:01:12.60    frame= 1808 fps= 25 q=28.0 size=    1792KiB time=00:01:12.24 bitrate= 203.2kbits/s speed=0.988x elapsed=0:01:13.10    frame= 1821 fps= 25 q=28.0 size=    1792KiB time=00:01:12.76 bitrate= 201.8kbits/s speed=0.989x elapsed=0:01:13.60    frame= 1833 fps= 25 q=28.0 size=    1792KiB time=00:01:13.24 bitrate= 200.4kbits/s speed=0.988x elapsed=0:01:14.10    frame= 1846 fps= 25 q=28.0 size=    1792KiB time=00:01:13.76 bitrate= 199.0kbits/s speed=0.989x elapsed=0:01:14.60    frame= 1858 fps= 25 q=28.0 size=    1792KiB time=00:01:14.24 bitrate= 197.7kbits/s speed=0.988x elapsed=0:01:15.10    frame= 1871 fps= 25 q=28.0 size=    1792KiB time=00:01:14.76 bitrate= 196.4kbits/s speed=0.989x elapsed=0:01:15.60    frame= 1883 fps= 25 q=28.0 size=    2048KiB time=00:01:15.24 bitrate= 223.0kbits/s speed=0.989x elapsed=0:01:16.10    frame= 1895 fps= 25 q=28.0 size=    2048KiB time=00:01:15.72 bitrate= 221.6kbits/s speed=0.988x elapsed=0:01:16.60    frame= 1908 fps= 25 q=28.0 size=    2048KiB time=00:01:16.24 bitrate= 220.1kbits/s speed=0.989x elapsed=0:01:17.10    frame= 1921 fps= 25 q=28.0 size=    2048KiB time=00:01:16.76 bitrate= 218.6kbits/s speed=0.989x elapsed=0:01:17.60    frame= 1933 fps= 25 q=28.0 size=    2048KiB time=00:01:17.24 bitrate= 217.2kbits/s speed=0.989x elapsed=0:01:18.10    frame= 1946 fps= 25 q=28.0 size=    2048KiB time=00:01:17.76 bitrate= 215.8kbits/s speed=0.989x elapsed=0:01:18.60    frame= 1958 fps= 25 q=28.0 size=    2048KiB time=00:01:18.24 bitrate= 214.4kbits/s speed=0.989x elapsed=0:01:19.10    frame= 1971 fps= 25 q=28.0 size=    2048KiB time=00:01:18.76 bitrate= 213.0kbits/s speed=0.989x elapsed=0:01:19.60    frame= 1983 fps= 25 q=28.0 size=    2048KiB time=00:01:19.24 bitrate= 211.7kbits/s speed=0.989x elapsed=0:01:20.10    frame= 1996 fps= 25 q=25.0 size=    2048KiB time=00:01:19.76 bitrate= 210.3kbits/s speed=0.989x elapsed=0:01:20.60    frame= 2008 fps= 25 q=28.0 size=    2048KiB time=00:01:20.24 bitrate= 209.1kbits/s speed=0.989x elapsed=0:01:21.10    frame= 2021 fps= 25 q=28.0 size=    2048KiB time=00:01:20.76 bitrate= 207.7kbits/s speed=0.99x elapsed=0:01:21.60    frame= 2033 fps= 25 q=28.0 size=    2048KiB time=00:01:21.24 bitrate= 206.5kbits/s speed=0.989x elapsed=0:01:22.11    frame= 2046 fps= 25 q=28.0 size=    2048KiB time=00:01:21.76 bitrate= 205.2kbits/s speed=0.99x elapsed=0:01:22.61    frame= 2058 fps= 25 q=28.0 size=    2048KiB time=00:01:22.24 bitrate= 204.0kbits/s speed=0.99x elapsed=0:01:23.11    frame= 2070 fps= 25 q=28.0 size=    2048KiB time=00:01:22.72 bitrate= 202.8kbits/s speed=0.989x elapsed=0:01:23.61    frame= 2083 fps= 25 q=28.0 size=    2048KiB time=00:01:23.24 bitrate= 201.6kbits/s speed=0.99x elapsed=0:01:24.11    frame= 2096 fps= 25 q=28.0 size=    2048KiB time=00:01:23.76 bitrate= 200.3kbits/s speed=0.99x elapsed=0:01:24.61    frame= 2108 fps= 25 q=28.0 size=    2048KiB time=00:01:24.24 bitrate= 199.2kbits/s speed=0.99x elapsed=0:01:25.11    frame= 2121 fps= 25 q=28.0 size=    2048KiB time=00:01:24.76 bitrate= 197.9kbits/s speed=0.99x elapsed=0:01:25.61    frame= 2133 fps= 25 q=28.0 size=    2304KiB time=00:01:25.24 bitrate= 221.4kbits/s speed=0.99x elapsed=0:01:26.11    frame= 2146 fps= 25 q=28.0 size=    2304KiB time=00:01:25.76 bitrate= 220.1kbits/s speed=0.99x elapsed=0:01:26.61    frame= 2158 fps= 25 q=28.0 size=    2304KiB time=00:01:26.24 bitrate= 218.9kbits/s speed=0.99x elapsed=0:01:27.11    frame= 2171 fps= 25 q=28.0 size=    2304KiB time=00:01:26.76 bitrate= 217.5kbits/s speed=0.99x elapsed=0:01:27.61    frame= 2183 fps= 25 q=28.0 size=    2304KiB time=00:01:27.24 bitrate= 216.3kbits/s speed=0.99x elapsed=0:01:28.11    frame= 2196 fps= 25 q=28.0 size=    2304KiB time=00:01:27.76 bitrate= 215.1kbits/s speed=0.99x elapsed=0:01:28.61    frame= 2208 fps= 25 q=28.0 size=    2304KiB time=00:01:28.24 bitrate= 213.9kbits/s speed=0.99x elapsed=0:01:29.11    frame= 2221 fps= 25 q=28.0 size=    2304KiB time=00:01:28.76 bitrate= 212.6kbits/s speed=0.99x elapsed=0:01:29.61    frame= 2233 fps= 25 q=28.0 size=    2304KiB time=00:01:29.24 bitrate= 211.5kbits/s speed=0.99x elapsed=0:01:30.11    frame= 2246 fps= 25 q=25.0 size=    2304KiB time=00:01:29.76 bitrate= 210.3kbits/s speed=0.991x elapsed=0:01:30.61    frame= 2259 fps= 25 q=28.0 size=    2560KiB time=00:01:30.28 bitrate= 232.3kbits/s speed=0.991x elapsed=0:01:31.11    frame= 2271 fps= 25 q=28.0 size=    2560KiB time=00:01:30.76 bitrate= 231.1kbits/s speed=0.991x elapsed=0:01:31.61    frame= 2283 fps= 25 q=28.0 size=    2560KiB time=00:01:31.24 bitrate= 229.9kbits/s speed=0.99x elapsed=0:01:32.12    frame= 2296 fps= 25 q=28.0 size=    2560KiB time=00:01:31.76 bitrate= 228.5kbits/s speed=0.991x elapsed=0:01:32.62    frame= 2309 fps= 25 q=28.0 size=    2560KiB time=00:01:32.28 bitrate= 227.3kbits/s speed=0.991x elapsed=0:01:33.12    frame= 2321 fps= 25 q=28.0 size=    2560KiB time=00:01:32.76 bitrate= 226.1kbits/s speed=0.991x elapsed=0:01:33.62    frame= 2334 fps= 25 q=28.0 size=    2560KiB time=00:01:33.28 bitrate= 224.8kbits/s speed=0.991x elapsed=0:01:34.12    frame= 2346 fps= 25 q=28.0 size=    2560KiB time=00:01:33.76 bitrate= 223.7kbits/s speed=0.991x elapsed=0:01:34.62    frame= 2359 fps= 25 q=28.0 size=    2560KiB time=00:01:34.28 bitrate= 222.4kbits/s speed=0.991x elapsed=0:01:35.12    frame= 2371 fps= 25 q=28.0 size=    2560KiB time=00:01:34.76 bitrate= 221.3kbits/s speed=0.991x elapsed=0:01:35.62    frame= 2384 fps= 25 q=28.0 size=    2560KiB time=00:01:35.28 bitrate= 220.1kbits/s speed=0.991x elapsed=0:01:36.12    frame= 2396 fps= 25 q=28.0 size=    2560KiB time=00:01:35.76 bitrate= 219.0kbits/s speed=0.991x elapsed=0:01:36.62    frame= 2408 fps= 25 q=28.0 size=    2560KiB time=00:01:36.24 bitrate= 217.9kbits/s speed=0.991x elapsed=0:01:37.12    frame= 2421 fps= 25 q=28.0 size=    2560KiB time=00:01:36.76 bitrate= 216.7kbits/s speed=0.991x elapsed=0:01:37.62    frame= 2434 fps= 25 q=28.0 size=    2560KiB time=00:01:37.28 bitrate= 215.6kbits/s speed=0.991x elapsed=0:01:38.12    frame= 2446 fps= 25 q=28.0 size=    2560KiB time=00:01:37.76 bitrate= 214.5kbits/s speed=0.991x elapsed=0:01:38.62    frame= 2459 fps= 25 q=28.0 size=    2560KiB time=00:01:38.28 bitrate= 213.4kbits/s speed=0.991x elapsed=0:01:39.12    frame= 2471 fps= 25 q=28.0 size=    2560KiB time=00:01:38.76 bitrate= 212.3kbits/s speed=0.991x elapsed=0:01:39.62    frame= 2484 fps= 25 q=28.0 size=    2560KiB time=00:01:39.28 bitrate= 211.2kbits/s speed=0.991x elapsed=0:01:40.13    frame= 2496 fps= 25 q=25.0 size=    2560KiB time=00:01:39.76 bitrate= 210.2kbits/s speed=0.991x elapsed=0:01:40.63    frame= 2509 fps= 25 q=28.0 size=    2816KiB time=00:01:40.28 bitrate= 230.0kbits/s speed=0.992x elapsed=0:01:41.13    frame= 2521 fps= 25 q=28.0 size=    2816KiB time=00:01:40.76 bitrate= 228.9kbits/s speed=0.991x elapsed=0:01:41.63    frame= 2533 fps= 25 q=28.0 size=    2816KiB time=00:01:41.24 bitrate= 227.9kbits/s speed=0.991x elapsed=0:01:42.13    frame= 2546 fps= 25 q=28.0 size=    2816KiB time=00:01:41.76 bitrate= 226.7kbits/s speed=0.991x elapsed=0:01:42.63    frame= 2559 fps= 25 q=28.0 size=    2816KiB time=00:01:42.28 bitrate= 225.5kbits/s speed=0.992x elapsed=0:01:43.13    frame= 2571 fps= 25 q=28.0 size=    2816KiB time=00:01:42.76 bitrate= 224.5kbits/s speed=0.992x elapsed=0:01:43.63    frame= 2584 fps= 25 q=28.0 size=    2816KiB time=00:01:43.28 bitrate= 223.4kbits/s speed=0.992x elapsed=0:01:44.13    frame= 2596 fps= 25 q=28.0 size=    2816KiB time=00:01:43.76 bitrate= 222.3kbits/s speed=0.992x elapsed=0:01:44.63    frame= 2609 fps= 25 q=28.0 size=    2816KiB time=00:01:44.28 bitrate= 221.2kbits/s speed=0.992x elapsed=0:01:45.13    frame= 2621 fps= 25 q=28.0 size=    2816KiB time=00:01:44.76 bitrate= 220.2kbits/s speed=0.992x elapsed=0:01:45.63    frame= 2634 fps= 25 q=28.0 size=    2816KiB time=00:01:45.28 bitrate= 219.1kbits/s speed=0.992x elapsed=0:01:46.13    frame= 2647 fps= 25 q=28.0 size=    2816KiB time=00:01:45.80 bitrate= 218.0kbits/s speed=0.992x elapsed=0:01:46.63    frame= 2659 fps= 25 q=28.0 size=    2816KiB time=00:01:46.28 bitrate= 217.1kbits/s speed=0.992x elapsed=0:01:47.13    frame= 2671 fps= 25 q=28.0 size=    2816KiB time=00:01:46.76 bitrate= 216.1kbits/s speed=0.992x elapsed=0:01:47.63    frame= 2684 fps= 25 q=28.0 size=    2816KiB time=00:01:47.28 bitrate= 215.0kbits/s speed=0.992x elapsed=0:01:48.14    frame= 2697 fps= 25 q=28.0 size=    2816KiB time=00:01:47.80 bitrate= 214.0kbits/s speed=0.992x elapsed=0:01:48.64    frame= 2709 fps= 25 q=28.0 size=    2816KiB time=00:01:48.28 bitrate= 213.0kbits/s speed=0.992x elapsed=0:01:49.14    frame= 2722 fps= 25 q=28.0 size=    2816KiB time=00:01:48.80 bitrate= 212.0kbits/s speed=0.992x elapsed=0:01:49.64    frame= 2734 fps= 25 q=28.0 size=    2816KiB time=00:01:49.28 bitrate= 211.1kbits/s speed=0.992x elapsed=0:01:50.14    frame= 2746 fps= 25 q=25.0 size=    2816KiB time=00:01:49.76 bitrate= 210.2kbits/s speed=0.992x elapsed=0:01:50.64    frame= 2759 fps= 25 q=28.0 size=    3072KiB time=00:01:50.28 bitrate= 228.2kbits/s speed=0.992x elapsed=0:01:51.14    frame= 2772 fps= 25 q=28.0 size=    3072KiB time=00:01:50.80 bitrate= 227.1kbits/s speed=0.992x elapsed=0:01:51.64    frame= 2784 fps= 25 q=28.0 size=    3072KiB time=00:01:51.28 bitrate= 226.1kbits/s speed=0.992x elapsed=0:01:52.14    frame= 2797 fps= 25 q=28.0 size=    3072KiB time=00:01:51.80 bitrate= 225.1kbits/s speed=0.992x elapsed=0:01:52.64    frame= 2809 fps= 25 q=28.0 size=    3072KiB time=00:01:52.28 bitrate= 224.1kbits/s speed=0.992x elapsed=0:01:53.14    frame= 2822 fps= 25 q=28.0 size=    3072KiB time=00:01:52.80 bitrate= 223.1kbits/s speed=0.993x elapsed=0:01:53.64    frame= 2834 fps= 25 q=28.0 size=    3072KiB time=00:01:53.28 bitrate= 222.2kbits/s speed=0.992x elapsed=0:01:54.14    frame= 2847 fps= 25 q=28.0 size=    3072KiB time=00:01:53.80 bitrate= 221.1kbits/s speed=0.993x elapsed=0:01:54.65    frame= 2859 fps= 25 q=28.0 size=    3072KiB time=00:01:54.28 bitrate= 220.2kbits/s speed=0.992x elapsed=0:01:55.15    frame= 2872 fps= 25 q=28.0 size=    3072KiB time=00:01:54.80 bitrate= 219.2kbits/s speed=0.993x elapsed=0:01:55.65    frame= 2884 fps= 25 q=28.0 size=    3328KiB time=00:01:55.28 bitrate= 236.5kbits/s speed=0.992x elapsed=0:01:56.15    frame= 2897 fps= 25 q=28.0 size=    3328KiB time=00:01:55.80 bitrate= 235.4kbits/s speed=0.993x elapsed=0:01:56.65    frame= 2909 fps= 25 q=28.0 size=    3328KiB time=00:01:56.28 bitrate= 234.5kbits/s speed=0.993x elapsed=0:01:57.15    frame= 2922 fps= 25 q=28.0 size=    3328KiB time=00:01:56.80 bitrate= 233.4kbits/s speed=0.993x elapsed=0:01:57.65    frame= 2934 fps= 25 q=28.0 size=    3328KiB time=00:01:57.28 bitrate= 232.5kbits/s speed=0.993x elapsed=0:01:58.15    frame= 2947 fps= 25 q=28.0 size=    3328KiB time=00:01:57.80 bitrate= 231.4kbits/s speed=0.993x elapsed=0:01:58.65    frame= 2959 fps= 25 q=28.0 size=    3328KiB time=00:01:58.28 bitrate= 230.5kbits/s speed=0.993x elapsed=0:01:59.15    frame= 2972 fps= 25 q=28.0 size=    3328KiB time=00:01:58.80 bitrate= 229.5kbits/s speed=0.993x elapsed=0:01:59.65    frame= 2984 fps= 25 q=28.0 size=    3328KiB time=00:01:59.28 bitrate= 228.6kbits/s speed=0.993x elapsed=0:02:00.16    frame= 2997 fps= 25 q=28.0 size=    3328KiB time=00:01:59.80 bitrate= 227.6kbits/s speed=0.993x elapsed=0:02:00.66    frame= 3010 fps= 25 q=28.0 size=    3328KiB time=00:02:00.32 bitrate= 226.6kbits/s speed=0.993x elapsed=0:02:01.16    frame= 3022 fps= 25 q=28.0 size=    3328KiB time=00:02:00.80 bitrate= 225.7kbits/s speed=0.993x elapsed=0:02:01.66    frame= 3035 fps= 25 q=28.0 size=    3328KiB time=00:02:01.32 bitrate= 224.7kbits/s speed=0.993x elapsed=0:02:02.16    frame= 3047 fps= 25 q=28.0 size=    3328KiB time=00:02:01.80 bitrate= 223.8kbits/s speed=0.993x elapsed=0:02:02.66    frame= 3060 fps= 25 q=28.0 size=    3328KiB time=00:02:02.32 bitrate= 222.9kbits/s speed=0.993x elapsed=0:02:03.16    frame= 3072 fps= 25 q=28.0 size=    3328KiB time=00:02:02.80 bitrate= 222.0kbits/s speed=0.993x elapsed=0:02:03.66    frame= 3085 fps= 25 q=28.0 size=    3328KiB time=00:02:03.32 bitrate= 221.1kbits/s speed=0.993x elapsed=0:02:04.17    frame= 3097 fps= 25 q=28.0 size=    3328KiB time=00:02:03.80 bitrate= 220.2kbits/s speed=0.993x elapsed=0:02:04.67    frame= 3109 fps= 25 q=28.0 size=    3328KiB time=00:02:04.28 bitrate= 219.4kbits/s speed=0.993x elapsed=0:02:05.17    frame= 3122 fps= 25 q=28.0 size=    3328KiB time=00:02:04.80 bitrate= 218.5kbits/s speed=0.993x elapsed=0:02:05.67    frame= 3135 fps= 25 q=28.0 size=    3584KiB time=00:02:05.32 bitrate= 234.3kbits/s speed=0.993x elapsed=0:02:06.17    frame= 3147 fps= 25 q=28.0 size=    3584KiB time=00:02:05.80 bitrate= 233.4kbits/s speed=0.993x elapsed=0:02:06.67    frame= 3160 fps= 25 q=28.0 size=    3584KiB time=00:02:06.32 bitrate= 232.4kbits/s speed=0.993x elapsed=0:02:07.17    frame= 3172 fps= 25 q=28.0 size=    3584KiB time=00:02:06.80 bitrate= 231.5kbits/s speed=0.993x elapsed=0:02:07.67    frame= 3185 fps= 25 q=28.0 size=    3584KiB time=00:02:07.32 bitrate= 230.6kbits/s speed=0.993x elapsed=0:02:08.17    frame= 3197 fps= 25 q=28.0 size=    3584KiB time=00:02:07.80 bitrate= 229.7kbits/s speed=0.993x elapsed=0:02:08.67    frame= 3210 fps= 25 q=28.0 size=    3584KiB time=00:02:08.32 bitrate= 228.8kbits/s speed=0.993x elapsed=0:02:09.17    frame= 3222 fps= 25 q=28.0 size=    3584KiB time=00:02:08.80 bitrate= 228.0kbits/s speed=0.993x elapsed=0:02:09.67    frame= 3235 fps= 25 q=28.0 size=    3584KiB time=00:02:09.32 bitrate= 227.0kbits/s speed=0.993x elapsed=0:02:10.17    frame= 3248 fps= 25 q=28.0 size=    3584KiB time=00:02:09.84 bitrate= 226.1kbits/s speed=0.994x elapsed=0:02:10.67    frame= 3260 fps= 25 q=28.0 size=    3584KiB time=00:02:10.32 bitrate= 225.3kbits/s speed=0.993x elapsed=0:02:11.17    frame= 3273 fps= 25 q=28.0 size=    3584KiB time=00:02:10.84 bitrate= 224.4kbits/s speed=0.994x elapsed=0:02:11.67    frame= 3285 fps= 25 q=28.0 size=    3584KiB time=00:02:11.32 bitrate= 223.6kbits/s speed=0.993x elapsed=0:02:12.18    frame= 3298 fps= 25 q=28.0 size=    3584KiB time=00:02:11.84 bitrate= 222.7kbits/s speed=0.994x elapsed=0:02:12.68    frame= 3310 fps= 25 q=28.0 size=    3584KiB time=00:02:12.32 bitrate= 221.9kbits/s speed=0.994x elapsed=0:02:13.18    frame= 3323 fps= 25 q=28.0 size=    3584KiB time=00:02:12.84 bitrate= 221.0kbits/s speed=0.994x elapsed=0:02:13.68    frame= 3335 fps= 25 q=28.0 size=    3584KiB time=00:02:13.32 bitrate= 220.2kbits/s speed=0.994x elapsed=0:02:14.18    frame= 3348 fps= 25 q=28.0 size=    3584KiB time=00:02:13.84 bitrate= 219.4kbits/s speed=0.994x elapsed=0:02:14.68    frame= 3360 fps= 25 q=28.0 size=    3584KiB time=00:02:14.32 bitrate= 218.6kbits/s speed=0.994x elapsed=0:02:15.18    frame= 3372 fps= 25 q=28.0 size=    3584KiB time=00:02:14.80 bitrate= 217.8kbits/s speed=0.993x elapsed=0:02:15.68    frame= 3385 fps= 25 q=28.0 size=    3840KiB time=00:02:15.32 bitrate= 232.5kbits/s speed=0.994x elapsed=0:02:16.18    frame= 3397 fps= 25 q=28.0 size=    3840KiB time=00:02:15.84 bitrate= 231.6kbits/s speed=0.994x elapsed=0:02:16.68    frame= 3410 fps= 25 q=28.0 size=    3840KiB time=00:02:16.32 bitrate= 230.8kbits/s speed=0.994x elapsed=0:02:17.18    frame= 3423 fps= 25 q=28.0 size=    3840KiB time=00:02:16.84 bitrate= 229.9kbits/s speed=0.994x elapsed=0:02:17.68    frame= 3435 fps= 25 q=28.0 size=    3840KiB time=00:02:17.32 bitrate= 229.1kbits/s speed=0.994x elapsed=0:02:18.18    frame= 3448 fps= 25 q=28.0 size=    3840KiB time=00:02:17.84 bitrate= 228.2kbits/s speed=0.994x elapsed=0:02:18.68    frame= 3460 fps= 25 q=28.0 size=    3840KiB time=00:02:18.32 bitrate= 227.4kbits/s speed=0.994x elapsed=0:02:19.18    frame= 3473 fps= 25 q=28.0 size=    3840KiB time=00:02:18.84 bitrate= 226.6kbits/s speed=0.994x elapsed=0:02:19.68    frame= 3485 fps= 25 q=28.0 size=    3840KiB time=00:02:19.32 bitrate= 225.8kbits/s speed=0.994x elapsed=0:02:20.18    frame= 3498 fps= 25 q=28.0 size=    3840KiB time=00:02:19.84 bitrate= 225.0kbits/s speed=0.994x elapsed=0:02:20.68    frame= 3510 fps= 25 q=28.0 size=    3840KiB time=00:02:20.32 bitrate= 224.2kbits/s speed=0.994x elapsed=0:02:21.19    frame= 3523 fps= 25 q=28.0 size=    3840KiB time=00:02:20.84 bitrate= 223.4kbits/s speed=0.994x elapsed=0:02:21.69    frame= 3535 fps= 25 q=28.0 size=    3840KiB time=00:02:21.32 bitrate= 222.6kbits/s speed=0.994x elapsed=0:02:22.19    frame= 3548 fps= 25 q=28.0 size=    3840KiB time=00:02:21.84 bitrate= 221.8kbits/s speed=0.994x elapsed=0:02:22.69    frame= 3560 fps= 25 q=28.0 size=    3840KiB time=00:02:22.32 bitrate= 221.0kbits/s speed=0.994x elapsed=0:02:23.19    frame= 3573 fps= 25 q=28.0 size=    3840KiB time=00:02:22.84 bitrate= 220.2kbits/s speed=0.994x elapsed=0:02:23.69    frame= 3585 fps= 25 q=28.0 size=    3840KiB time=00:02:23.36 bitrate= 219.4kbits/s speed=0.994x elapsed=0:02:24.19    frame= 3598 fps= 25 q=28.0 size=    3840KiB time=00:02:23.84 bitrate= 218.7kbits/s speed=0.994x elapsed=0:02:24.69    frame= 3610 fps= 25 q=28.0 size=    3840KiB time=00:02:24.32 bitrate= 218.0kbits/s speed=0.994x elapsed=0:02:25.19    frame= 3623 fps= 25 q=28.0 size=    3840KiB time=00:02:24.84 bitrate= 217.2kbits/s speed=0.994x elapsed=0:02:25.69    frame= 3635 fps= 25 q=28.0 size=    4096KiB time=00:02:25.32 bitrate= 230.9kbits/s speed=0.994x elapsed=0:02:26.20    frame= 3648 fps= 25 q=28.0 size=    4096KiB time=00:02:25.84 bitrate= 230.1kbits/s speed=0.994x elapsed=0:02:26.70    frame= 3661 fps= 25 q=28.0 size=    4096KiB time=00:02:26.36 bitrate= 229.3kbits/s speed=0.994x elapsed=0:02:27.20    frame= 3673 fps= 25 q=28.0 size=    4096KiB time=00:02:26.84 bitrate= 228.5kbits/s speed=0.994x elapsed=0:02:27.70    frame= 3686 fps= 25 q=28.0 size=    4096KiB time=00:02:27.36 bitrate= 227.7kbits/s speed=0.994x elapsed=0:02:28.20    frame= 3698 fps= 25 q=28.0 size=    4096KiB time=00:02:27.84 bitrate= 227.0kbits/s speed=0.994x elapsed=0:02:28.70    frame= 3711 fps= 25 q=28.0 size=    4096KiB time=00:02:28.36 bitrate= 226.2kbits/s speed=0.994x elapsed=0:02:29.20    frame= 3723 fps= 25 q=28.0 size=    4096KiB time=00:02:28.84 bitrate= 225.4kbits/s speed=0.994x elapsed=0:02:29.70    frame= 3736 fps= 25 q=28.0 size=    4096KiB time=00:02:29.36 bitrate= 224.7kbits/s speed=0.994x elapsed=0:02:30.20    frame= 3748 fps= 25 q=28.0 size=    4096KiB time=00:02:29.84 bitrate= 223.9kbits/s speed=0.994x elapsed=0:02:30.70    frame= 3760 fps= 25 q=28.0 size=    4352KiB time=00:02:30.32 bitrate= 237.2kbits/s speed=0.994x elapsed=0:02:31.20    frame= 3773 fps= 25 q=28.0 size=    4352KiB time=00:02:30.84 bitrate= 236.4kbits/s speed=0.994x elapsed=0:02:31.70    frame= 3786 fps= 25 q=28.0 size=    4352KiB time=00:02:31.36 bitrate= 235.5kbits/s speed=0.994x elapsed=0:02:32.20    frame= 3798 fps= 25 q=28.0 size=    4352KiB time=00:02:31.84 bitrate= 234.8kbits/s speed=0.994x elapsed=0:02:32.70    frame= 3811 fps= 25 q=28.0 size=    4352KiB time=00:02:32.36 bitrate= 234.0kbits/s speed=0.994x elapsed=0:02:33.20    frame= 3823 fps= 25 q=28.0 size=    4352KiB time=00:02:32.84 bitrate= 233.3kbits/s speed=0.994x elapsed=0:02:33.70    frame= 3836 fps= 25 q=28.0 size=    4352KiB time=00:02:33.36 bitrate= 232.5kbits/s speed=0.995x elapsed=0:02:34.20    frame= 3848 fps= 25 q=28.0 size=    4352KiB time=00:02:33.84 bitrate= 231.7kbits/s speed=0.994x elapsed=0:02:34.70    frame= 3861 fps= 25 q=28.0 size=    4352KiB time=00:02:34.36 bitrate= 231.0kbits/s speed=0.995x elapsed=0:02:35.20    frame= 3873 fps= 25 q=28.0 size=    4352KiB time=00:02:34.84 bitrate= 230.2kbits/s speed=0.994x elapsed=0:02:35.71    frame= 3886 fps= 25 q=28.0 size=    4352KiB time=00:02:35.36 bitrate= 229.5kbits/s speed=0.995x elapsed=0:02:36.21    frame= 3898 fps= 25 q=28.0 size=    4352KiB time=00:02:35.84 bitrate= 228.8kbits/s speed=0.994x elapsed=0:02:36.71    frame= 3911 fps= 25 q=28.0 size=    4352KiB time=00:02:36.36 bitrate= 228.0kbits/s speed=0.995x elapsed=0:02:37.21    frame= 3923 fps= 25 q=28.0 size=    4352KiB time=00:02:36.84 bitrate= 227.3kbits/s speed=0.994x elapsed=0:02:37.71    frame= 3936 fps= 25 q=28.0 size=    4352KiB time=00:02:37.36 bitrate= 226.6kbits/s speed=0.995x elapsed=0:02:38.21    frame= 3948 fps= 25 q=28.0 size=    4352KiB time=00:02:37.84 bitrate= 225.9kbits/s speed=0.994x elapsed=0:02:38.71    frame= 3961 fps= 25 q=28.0 size=    4352KiB time=00:02:38.36 bitrate= 225.1kbits/s speed=0.995x elapsed=0:02:39.21    frame= 3973 fps= 25 q=28.0 size=    4352KiB time=00:02:38.84 bitrate= 224.4kbits/s speed=0.995x elapsed=0:02:39.71    frame= 3986 fps= 25 q=28.0 size=    4352KiB time=00:02:39.36 bitrate= 223.7kbits/s speed=0.995x elapsed=0:02:40.21    frame= 3998 fps= 25 q=28.0 size=    4352KiB time=00:02:39.84 bitrate= 223.0kbits/s speed=0.995x elapsed=0:02:40.71    frame= 4011 fps= 25 q=28.0 size=    4352KiB time=00:02:40.36 bitrate= 222.3kbits/s speed=0.995x elapsed=0:02:41.21    frame= 4024 fps= 25 q=28.0 size=    4352KiB time=00:02:40.88 bitrate= 221.6kbits/s speed=0.995x elapsed=0:02:41.71    frame= 4036 fps= 25 q=28.0 size=    4352KiB time=00:02:41.36 bitrate= 220.9kbits/s speed=0.995x elapsed=0:02:42.21    frame= 4048 fps= 25 q=28.0 size=    4352KiB time=00:02:41.84 bitrate= 220.3kbits/s speed=0.995x elapsed=0:02:42.71    frame= 4061 fps= 25 q=28.0 size=    4352KiB time=00:02:42.36 bitrate= 219.6kbits/s speed=0.995x elapsed=0:02:43.21    frame= 4073 fps= 25 q=28.0 size=    4352KiB time=00:02:42.84 bitrate= 218.9kbits/s speed=0.995x elapsed=0:02:43.71    frame= 4086 fps= 25 q=28.0 size=    4352KiB time=00:02:43.36 bitrate= 218.2kbits/s speed=0.995x elapsed=0:02:44.21    [out#0/matroska @ 0x563916a4d500] Error writing trailer: Immediate exit requested
[out#0/matroska @ 0x563916a4d500] Error closing file: Immediate exit requested
[out#0/matroska @ 0x563916a4d500] video:5220KiB audio:0KiB subtitle:0KiB other streams:0KiB global headers:0KiB muxing overhead: unknown
frame= 4119 fps= 25 q=-1.0 Lsize=    4352KiB time=00:02:44.68 bitrate= 216.5kbits/s speed=0.999x elapsed=0:02:44.82    
[libx264 @ 0x563916a4ef00] frame I:17    Avg QP:11.57  size:118150
[libx264 @ 0x563916a4ef00] frame P:1039  Avg QP:17.32  size:  1932
[libx264 @ 0x563916a4ef00] frame B:3063  Avg QP:25.07  size:   434
[libx264 @ 0x563916a4ef00] consecutive B-frames:  0.8%  0.0%  0.0% 99.2%
[libx264 @ 0x563916a4ef00] mb I  I16..4: 89.0%  1.9%  9.1%
[libx264 @ 0x563916a4ef00] mb P  I16..4:  0.2%  0.0%  0.0%  P16..4:  0.3%  0.2%  0.1%  0.0%  0.0%    skip:99.2%
[libx264 @ 0x563916a4ef00] mb B  I16..4:  0.0%  0.0%  0.0%  B16..8:  0.2%  0.1%  0.0%  direct: 0.0%  skip:99.6%  L0:45.7% L1:46.8% BI: 7.6%
[libx264 @ 0x563916a4ef00] 8x8 transform intra:4.1% inter:2.4%
[libx264 @ 0x563916a4ef00] coded y,uvDC,uvAC intra: 14.9% 21.0% 17.4% inter: 0.1% 0.1% 0.0%
[libx264 @ 0x563916a4ef00] i16 v,h,dc,p: 70% 27%  2%  0%
[libx264 @ 0x563916a4ef00] i8 v,h,dc,ddl,ddr,vr,hd,vl,hu: 14% 19% 62%  1%  1%  2%  0%  0%  1%
[libx264 @ 0x563916a4ef00] i4 v,h,dc,ddl,ddr,vr,hd,vl,hu: 33% 26% 20%  3%  3%  6%  3%  4%  2%
[libx264 @ 0x563916a4ef00] i8c dc,h,v,p: 62% 29%  9%  0%
[libx264 @ 0x563916a4ef00] Weighted P-Frames: Y:0.0% UV:0.0%
[libx264 @ 0x563916a4ef00] kb/s:259.50
Exiting normally, received signal 2.
